<svg xmlns="http://www.w3.org/2000/svg" viewBox="0 0 800 600" width="800" height="600" role="img">
<defs>
<linearGradient id="wall" x1="0" y1="0" x2="0" y2="1"><stop offset="0" stop-color="#e9eef4"/><stop offset="1" stop-color="#cdd8e4"/></linearGradient>
<linearGradient id="floor" x1="0" y1="0" x2="0" y2="1"><stop offset="0" stop-color="#8fa3b8"/><stop offset="1" stop-color="#6c7f94"/></linearGradient>
<radialGradient id="vig" cx="0.5" cy="0.45" r="0.75"><stop offset="0.6" stop-color="#000" stop-opacity="0"/><stop offset="1" stop-color="#000" stop-opacity="0.22"/></radialGradient>
</defs>
<rect width="800" height="600" fill="url(#wall)"/>
<rect y="360" width="800" height="240" fill="url(#floor)"/>
<path d="M0 360 L800 360" stroke="#5d7089" stroke-width="3"/>
<rect x="230" y="430" width="340" height="26" fill="#c2a06a" stroke="#8a7043" stroke-width="3"/><rect x="250" y="350" width="150" height="80" fill="#d1a061" stroke="#a9743f" stroke-width="3" transform="rotate(0 325 390)"/><rect x="410" y="350" width="150" height="80" fill="#d1a061" stroke="#a9743f" stroke-width="3" transform="rotate(0 485 390)"/><rect x="250" y="262" width="150" height="80" fill="#d1a061" stroke="#a9743f" stroke-width="3" transform="rotate(0 325 302)"/><rect x="410" y="262" width="150" height="80" fill="#d1a061" stroke="#a9743f" stroke-width="3" transform="rotate(0 485 302)"/><rect x="330" y="174" width="150" height="80" fill="#d1a061" stroke="#a9743f" stroke-width="3" transform="rotate(0 405 214)"/><path d="M240 168 L570 168" stroke="#00a95c" stroke-width="6" stroke-dasharray="14 10"/>
   <text x="240" y="158" font-family="sans-serif" font-size="20" font-weight="700" fill="#00733f">積載上限ライン</text>
<rect width="800" height="600" fill="url(#vig)"/>
</svg>