<svg xmlns="http://www.w3.org/2000/svg" viewBox="0 0 800 600" width="800" height="600" role="img">
<defs>
<linearGradient id="wall" x1="0" y1="0" x2="0" y2="1"><stop offset="0" stop-color="#e9eef4"/><stop offset="1" stop-color="#cdd8e4"/></linearGradient>
<linearGradient id="floor" x1="0" y1="0" x2="0" y2="1"><stop offset="0" stop-color="#8fa3b8"/><stop offset="1" stop-color="#6c7f94"/></linearGradient>
<radialGradient id="vig" cx="0.5" cy="0.45" r="0.75"><stop offset="0.6" stop-color="#000" stop-opacity="0"/><stop offset="1" stop-color="#000" stop-opacity="0.22"/></radialGradient>
</defs>
<rect width="800" height="600" fill="url(#wall)"/>
<rect y="360" width="800" height="240" fill="url(#floor)"/>
<path d="M0 360 L800 360" stroke="#5d7089" stroke-width="3"/>
<rect x="120" y="90" width="224" height="330" fill="#c9d3de" stroke="#8b9bad" stroke-width="4"/><rect x="120" y="195" width="224" height="10" fill="#9fb0c2"/><rect x="120" y="305" width="224" height="10" fill="#9fb0c2"/><rect x="134" y="104" width="90" height="70" fill="#d8a05c" stroke="#a9743f" stroke-width="2"/><rect x="140" y="131" width="78" height="16" fill="#f7f3ea" opacity="0.9"/><rect x="236" y="104" width="90" height="70" fill="#cf9450" stroke="#a9743f" stroke-width="2"/><rect x="242" y="131" width="78" height="16" fill="#f7f3ea" opacity="0.9"/><rect x="134" y="218" width="90" height="70" fill="#d8a05c" stroke="#a9743f" stroke-width="2"/><rect x="140" y="245" width="78" height="16" fill="#f7f3ea" opacity="0.9"/><rect x="236" y="218" width="90" height="70" fill="#c98d4b" stroke="#a9743f" stroke-width="2"/><rect x="242" y="245" width="78" height="16" fill="#f7f3ea" opacity="0.9"/><rect x="134" y="332" width="90" height="70" fill="#d8a05c" stroke="#a9743f" stroke-width="2"/><rect x="140" y="359" width="78" height="16" fill="#f7f3ea" opacity="0.9"/><rect x="236" y="332" width="90" height="70" fill="#cf9450" stroke="#a9743f" stroke-width="2"/><rect x="242" y="359" width="78" height="16" fill="#f7f3ea" opacity="0.9"/><rect x="420" y="90" width="224" height="330" fill="#c9d3de" stroke="#8b9bad" stroke-width="4"/><rect x="420" y="195" width="224" height="10" fill="#9fb0c2"/><rect x="420" y="305" width="224" height="10" fill="#9fb0c2"/><rect x="434" y="104" width="90" height="70" fill="#d8a05c" stroke="#a9743f" stroke-width="2"/><rect x="440" y="131" width="78" height="16" fill="#f7f3ea" opacity="0.9"/><rect x="536" y="104" width="90" height="70" fill="#cf9450" stroke="#a9743f" stroke-width="2"/><rect x="542" y="131" width="78" height="16" fill="#f7f3ea" opacity="0.9"/><rect x="434" y="218" width="90" height="70" fill="#d8a05c" stroke="#a9743f" stroke-width="2"/><rect x="440" y="245" width="78" height="16" fill="#f7f3ea" opacity="0.9"/><rect x="536" y="218" width="90" height="70" fill="#c98d4b" stroke="#a9743f" stroke-width="2"/><rect x="542" y="245" width="78" height="16" fill="#f7f3ea" opacity="0.9"/><rect x="434" y="332" width="90" height="70" fill="#d8a05c" stroke="#a9743f" stroke-width="2"/><rect x="440" y="359" width="78" height="16" fill="#f7f3ea" opacity="0.9"/><rect x="536" y="332" width="90" height="70" fill="#cf9450" stroke="#a9743f" stroke-width="2"/><rect x="542" y="359" width="78" height="16" fill="#f7f3ea" opacity="0.9"/><g font-family="sans-serif" fill="#33475e">
   <rect x="130" y="404" width="46" height="14" fill="#fff" stroke="#9aa8b8"/><text x="134" y="415" font-size="9">A-1-03</text>
   <rect x="430" y="404" width="46" height="14" fill="#fff" stroke="#9aa8b8"/><text x="434" y="415" font-size="9">A-1-04</text></g>
<rect width="800" height="600" fill="url(#vig)"/>
</svg>