<svg xmlns="http://www.w3.org/2000/svg" viewBox="0 0 800 600" width="800" height="600" role="img">
<defs>
<linearGradient id="wall" x1="0" y1="0" x2="0" y2="1"><stop offset="0" stop-color="#e9eef4"/><stop offset="1" stop-color="#cdd8e4"/></linearGradient>
<linearGradient id="floor" x1="0" y1="0" x2="0" y2="1"><stop offset="0" stop-color="#8fa3b8"/><stop offset="1" stop-color="#6c7f94"/></linearGradient>
<radialGradient id="vig" cx="0.5" cy="0.45" r="0.75"><stop offset="0.6" stop-color="#000" stop-opacity="0"/><stop offset="1" stop-color="#000" stop-opacity="0.22"/></radialGradient>
</defs>
<rect width="800" height="600" fill="url(#wall)"/>
<rect y="360" width="800" height="240" fill="url(#floor)"/>
<path d="M0 360 L800 360" stroke="#5d7089" stroke-width="3"/>
<rect x="210" y="130" width="380" height="290" fill="#c9d3de" stroke="#8b9bad" stroke-width="4"/><rect x="210" y="221.66666666666669" width="380" height="10" fill="#9fb0c2"/><rect x="210" y="318.33333333333337" width="380" height="10" fill="#9fb0c2"/><rect x="230" y="150" width="100" height="60" fill="#5bc0eb" stroke="#a9743f" stroke-width="2"/><rect x="236" y="172" width="88" height="16" fill="#f7f3ea" opacity="0.9"/><rect x="350" y="150" width="100" height="60" fill="#ffd400" stroke="#a9743f" stroke-width="2"/><rect x="356" y="172" width="88" height="16" fill="#f7f3ea" opacity="0.9"/><rect x="470" y="150" width="100" height="60" fill="#f08a5d" stroke="#a9743f" stroke-width="2"/><rect x="476" y="172" width="88" height="16" fill="#f7f3ea" opacity="0.9"/><rect x="230" y="250" width="100" height="60" fill="#9bd4a2" stroke="#a9743f" stroke-width="2"/><rect x="236" y="272" width="88" height="16" fill="#f7f3ea" opacity="0.9"/><rect x="350" y="250" width="100" height="60" fill="#c9a0dc" stroke="#a9743f" stroke-width="2"/><rect x="356" y="272" width="88" height="16" fill="#f7f3ea" opacity="0.9"/><rect x="470" y="250" width="100" height="60" fill="#d1a061" stroke="#a9743f" stroke-width="2"/><rect x="476" y="272" width="88" height="16" fill="#f7f3ea" opacity="0.9"/><g font-family="sans-serif" font-size="16" font-weight="700" fill="#1b1b1b"><rect x="214" y="424" width="372" height="26" rx="4" fill="#fff" stroke="#8b9bad" stroke-width="2"/><text x="240" y="443">共用備品（手袋・カッター・テープ）</text></g>
<rect width="800" height="600" fill="url(#vig)"/>
</svg>